<svg xmlns="http://www.w3.org/2000/svg" xmlns:xlink="http://www.w3.org/1999/xlink" width="40" zoomAndPan="magnify" viewBox="0 0 30 30.000001" height="40" preserveAspectRatio="xMidYMid meet" version="1.0"><defs><g/><clipPath id="fa588ff6f5"><path d="M 1.5 1.160156 L 28.523438 1.160156 L 28.523438 27.871094 L 1.5 27.871094 Z M 1.5 1.160156 " clip-rule="nonzero"/></clipPath><clipPath id="57ddbc605b"><path d="M 5.128906 1.160156 L 24.871094 1.160156 C 26.875 1.160156 28.5 2.785156 28.5 4.789062 L 28.5 24.242188 C 28.5 26.246094 26.875 27.871094 24.871094 27.871094 L 5.128906 27.871094 C 3.125 27.871094 1.5 26.246094 1.5 24.242188 L 1.5 4.789062 C 1.5 2.785156 3.125 1.160156 5.128906 1.160156 Z M 5.128906 1.160156 " clip-rule="nonzero"/></clipPath><clipPath id="f0d5f68b4d"><path d="M 0.5 0.160156 L 27.523438 0.160156 L 27.523438 26.871094 L 0.5 26.871094 Z M 0.5 0.160156 " clip-rule="nonzero"/></clipPath><clipPath id="5992b9c212"><path d="M 4.128906 0.160156 L 23.871094 0.160156 C 25.875 0.160156 27.5 1.785156 27.5 3.789062 L 27.5 23.242188 C 27.5 25.246094 25.875 26.871094 23.871094 26.871094 L 4.128906 26.871094 C 2.125 26.871094 0.5 25.246094 0.5 23.242188 L 0.5 3.789062 C 0.5 1.785156 2.125 0.160156 4.128906 0.160156 Z M 4.128906 0.160156 " clip-rule="nonzero"/></clipPath><clipPath id="5b85112393"><rect x="0" width="28" y="0" height="27"/></clipPath><clipPath id="de5c7fd812"><path d="M 22.984375 2.902344 L 26.613281 2.902344 L 26.613281 6.53125 L 22.984375 6.53125 Z M 22.984375 2.902344 " clip-rule="nonzero"/></clipPath><clipPath id="ed38958e0c"><path d="M 24.796875 2.902344 C 23.796875 2.902344 22.984375 3.714844 22.984375 4.71875 C 22.984375 5.71875 23.796875 6.53125 24.796875 6.53125 C 25.800781 6.53125 26.613281 5.71875 26.613281 4.71875 C 26.613281 3.714844 25.800781 2.902344 24.796875 2.902344 Z M 24.796875 2.902344 " clip-rule="nonzero"/></clipPath><clipPath id="e92345b630"><path d="M 0.984375 0.902344 L 4.613281 0.902344 L 4.613281 4.53125 L 0.984375 4.53125 Z M 0.984375 0.902344 " clip-rule="nonzero"/></clipPath><clipPath id="adbc0299d7"><path d="M 2.796875 0.902344 C 1.796875 0.902344 0.984375 1.714844 0.984375 2.71875 C 0.984375 3.71875 1.796875 4.53125 2.796875 4.53125 C 3.800781 4.53125 4.613281 3.71875 4.613281 2.71875 C 4.613281 1.714844 3.800781 0.902344 2.796875 0.902344 Z M 2.796875 0.902344 " clip-rule="nonzero"/></clipPath><clipPath id="c5c9f43952"><rect x="0" width="5" y="0" height="5"/></clipPath></defs><g clip-path="url(#fa588ff6f5)"><g clip-path="url(#57ddbc605b)"><g transform="matrix(1, 0, 0, 1, 1, 1)"><g clip-path="url(#5b85112393)"><g clip-path="url(#f0d5f68b4d)"><g clip-path="url(#5992b9c212)"><path fill="#a7f175" d="M 0.5 0.160156 L 27.523438 0.160156 L 27.523438 26.871094 L 0.5 26.871094 Z M 0.5 0.160156 " fill-opacity="1" fill-rule="nonzero"/></g></g></g></g></g></g><g fill="#000000" fill-opacity="1"><g transform="translate(4.473539, 19.961151)"><g><path d="M 0.546875 -12.46875 L 4.390625 -12.46875 C 4.992188 -12.46875 5.460938 -12.328125 5.796875 -12.046875 C 6.128906 -11.773438 6.351562 -11.390625 6.46875 -10.890625 C 6.582031 -10.390625 6.640625 -9.753906 6.640625 -8.984375 C 6.640625 -8.273438 6.546875 -7.722656 6.359375 -7.328125 C 6.179688 -6.929688 5.867188 -6.65625 5.421875 -6.5 C 5.796875 -6.425781 6.066406 -6.238281 6.234375 -5.9375 C 6.398438 -5.632812 6.484375 -5.226562 6.484375 -4.71875 L 6.453125 0 L 4.015625 0 L 4.015625 -4.875 C 4.015625 -5.226562 3.945312 -5.453125 3.8125 -5.546875 C 3.675781 -5.640625 3.429688 -5.6875 3.078125 -5.6875 L 3.078125 0 L 0.546875 0 Z M 3.6875 -7.859375 C 4.03125 -7.859375 4.203125 -8.234375 4.203125 -8.984375 C 4.203125 -9.316406 4.1875 -9.5625 4.15625 -9.71875 C 4.132812 -9.882812 4.082031 -10 4 -10.0625 C 3.925781 -10.125 3.816406 -10.15625 3.671875 -10.15625 L 3.09375 -10.15625 L 3.09375 -7.859375 Z M 3.6875 -7.859375 "/></g></g></g><g fill="#000000" fill-opacity="1"><g transform="translate(11.392356, 19.961151)"><g><path d="M 2.4375 0.109375 C 1.613281 0.109375 1.050781 -0.160156 0.75 -0.703125 C 0.445312 -1.253906 0.296875 -2.035156 0.296875 -3.046875 C 0.296875 -3.878906 0.398438 -4.515625 0.609375 -4.953125 C 0.828125 -5.398438 1.128906 -5.726562 1.515625 -5.9375 C 1.910156 -6.144531 2.503906 -6.378906 3.296875 -6.640625 L 3.984375 -6.859375 L 3.984375 -7.953125 C 3.984375 -8.234375 3.925781 -8.445312 3.8125 -8.59375 C 3.707031 -8.75 3.578125 -8.828125 3.421875 -8.828125 C 3.285156 -8.828125 3.164062 -8.765625 3.0625 -8.640625 C 2.96875 -8.515625 2.921875 -8.34375 2.921875 -8.125 L 2.921875 -7.484375 L 0.453125 -7.484375 L 0.453125 -7.84375 C 0.453125 -8.882812 0.695312 -9.625 1.1875 -10.0625 C 1.675781 -10.507812 2.472656 -10.734375 3.578125 -10.734375 C 4.453125 -10.734375 5.164062 -10.503906 5.71875 -10.046875 C 6.269531 -9.585938 6.546875 -8.9375 6.546875 -8.09375 L 6.546875 0 L 4.015625 0 L 4.015625 -1.265625 C 3.890625 -0.828125 3.6875 -0.488281 3.40625 -0.25 C 3.132812 -0.0078125 2.8125 0.109375 2.4375 0.109375 Z M 3.4375 -1.859375 C 3.632812 -1.859375 3.773438 -1.9375 3.859375 -2.09375 C 3.941406 -2.257812 3.984375 -2.457031 3.984375 -2.6875 L 3.984375 -5.640625 C 3.597656 -5.492188 3.316406 -5.3125 3.140625 -5.09375 C 2.960938 -4.875 2.875 -4.566406 2.875 -4.171875 L 2.875 -2.796875 C 2.875 -2.171875 3.0625 -1.859375 3.4375 -1.859375 Z M 3.4375 -1.859375 "/></g></g></g><g fill="#000000" fill-opacity="1"><g transform="translate(18.398211, 19.961151)"><g><path d="M 0.515625 0 L 0.515625 -12.546875 L 3.015625 -12.546875 L 3.015625 -6.96875 L 4.234375 -10.625 L 6.859375 -10.625 L 5.265625 -6.015625 L 7.296875 0 L 4.59375 0 L 3.015625 -5.015625 L 3.015625 0 Z M 0.515625 0 "/></g></g></g><g clip-path="url(#de5c7fd812)"><g clip-path="url(#ed38958e0c)"><g transform="matrix(1, 0, 0, 1, 22, 2)"><g clip-path="url(#c5c9f43952)"><g clip-path="url(#e92345b630)"><g clip-path="url(#adbc0299d7)"><path fill="#ff5757" d="M 0.984375 0.902344 L 4.613281 0.902344 L 4.613281 4.53125 L 0.984375 4.53125 Z M 0.984375 0.902344 " fill-opacity="1" fill-rule="nonzero"/></g></g></g></g></g></g></svg>